# xmcd
#
# Track frame offsets:
#	182
#	13245
#	28090
#	43157
#	56832
#	71745
#	87012
#	102227
#	118882
#	131592
#
# Disc length: 1917 seconds
#
# Revision: 5
# Processed by: cddbd v1.5.1PL2 Copyright (c) Steve Scherf et al.
# Submitted via: audiograbber 1.83.01
#
DISCID=8f077b0a
DTITLE=Various Artist - Great Divorce Songs For Her
DYEAR=1994
DGENRE=Country
TTITLE0=Dawn Sears - Good Goodbye
TTITLE1=Highway 101 - Someone Else's Trouble Now
TTITLE2=The Forrester Sisters - Men
TTITLE3=DeAnn Cox - Never Gonna Be Your Fool Again
TTITLE4=Holly Dunn - You Can Have Him
TTITLE5=Highway 101 - Who's Lonely Now
TTITLE6=The Forrester Sisters - You Can't Have A Good Time Without Me
TTITLE7=K T Oslin - Younger Men
TTITLE8=Holly Dunn - You Really Had Me Going
TTITLE9=Dawn Sears - No More Tears
EXTD=
EXTT0=
EXTT1=
EXTT2=
EXTT3=
EXTT4=
EXTT5=
EXTT6=
EXTT7=
EXTT8=
EXTT9=
PLAYORDER=
